# xmcd
#
# Track frame offsets:
#	150
#	600
#	24133
#	34991
#	44858
#	69646
#	78102
#	93506
#	106177
#	128414
#	149891
#	166662
#	185918
#	211417
#	228358
#	240491
#	261995
#	283209
#	290943
#	312446
#
# Disc length: 4297 seconds
#
# Revision: 0
# Processed by: cddbd v1.5.1PL2 Copyright (c) Steve Scherf et al.
# Submitted via: dBpowerAMP V4.0
#
DISCID=2910c714
DTITLE=Åke Edwardson - Sol och skugga - CD-BOK 07/11
DYEAR=1999
DGENRE=CD-BOK
TTITLE0=07.01
TTITLE1=07.02
TTITLE2=07.03
TTITLE3=07.04
TTITLE4=07.05
TTITLE5=07.06
TTITLE6=07.07
TTITLE7=07.08
TTITLE8=07.09
TTITLE9=07.10
TTITLE10=07.11
TTITLE11=07.12
TTITLE12=07.13
TTITLE13=07.14
TTITLE14=07.15
TTITLE15=07.16
TTITLE16=07.17
TTITLE17=07.18
TTITLE18=07.19
TTITLE19=07.20
EXTD=
EXTT0=
EXTT1=
EXTT2=
EXTT3=
EXTT4=
EXTT5=
EXTT6=
EXTT7=
EXTT8=
EXTT9=
EXTT10=
EXTT11=
EXTT12=
EXTT13=
EXTT14=
EXTT15=
EXTT16=
EXTT17=
EXTT18=
EXTT19=
PLAYORDER=
